<svg xmlns="http://www.w3.org/2000/svg" version="1.1" xmlns:xlink="http://www.w3.org/1999/xlink" xmlns:svgjs="http://svgjs.dev/svgjs" width="1000" height="623" viewBox="0 0 1000 623"><g transform="matrix(1,0,0,1,-0.6060606060606233,0.2522267206477409)"><svg viewBox="0 0 396 247" data-background-color="#ffffff" preserveAspectRatio="xMidYMid meet" height="623" width="1000" xmlns="http://www.w3.org/2000/svg" xmlns:xlink="http://www.w3.org/1999/xlink"><g id="tight-bounds" transform="matrix(1,0,0,1,0.2400000000000091,-0.09999999999999432)"><svg viewBox="0 0 395.52 247.2" height="247.2" width="395.52"><g><svg></svg></g><g><svg viewBox="0 0 395.52 247.2" height="247.2" width="395.52"><g transform="matrix(1,0,0,1,39.55199999999999,86.25088773661022)"><svg viewBox="0 0 316.416 74.69822452677954" height="74.69822452677954" width="316.416"><g><svg viewBox="0 0 316.416 74.69822452677954" height="74.69822452677954" width="316.416"><g><svg viewBox="0 0 316.416 74.69822452677954" height="74.69822452677954" width="316.416"><g><svg viewBox="0 0 316.416 74.69822452677954" height="74.69822452677954" width="316.416"><g id="textblocktransform"><svg viewBox="0 0 316.416 74.69822452677954" height="74.69822452677954" width="316.416" id="textblock"><g><svg viewBox="0 0 316.416 47.703103734439836" height="47.703103734439836" width="316.416"><g transform="matrix(1,0,0,1,0,0)"><svg width="316.416" viewBox="-0.5 -32.1 216.88 32.7" height="47.703103734439836" data-palette-color="#ffffff"><path d="M28.8-0.9L28.8 0 18.55 0 18.55-0.9 21.8-0.9 18.3-10.55 7.3-10.55 3.8-0.9 7.05-0.9 7.05 0-0.5 0-0.5-0.9 1.35-0.9Q2.05-0.9 2.3-1.6L2.3-1.6 13.3-31.5 15-31.5 26-1.6Q26.25-0.9 26.95-0.9L26.95-0.9 28.8-0.9ZM17.8-11.95L12.85-25.6 7.85-11.95 17.8-11.95ZM32.4-30.6L30.05-30.6 30.05-31.5 42.75-31.5Q49.1-31.5 53.1-27.3 57.1-23.1 57.1-15.75 57.1-8.4 53.1-4.2 49.1 0 42.75 0L42.75 0 30.05 0 30.05-0.9 32.4-0.9Q33.1-0.9 33.1-1.5L33.1-1.5 33.1-30Q33.1-30.6 32.4-30.6L32.4-30.6ZM42.75-30.1L42.75-30.1 37.2-30.1 37.2-1.4 42.75-1.4Q47.05-1.4 49.95-5.25 52.85-9.1 52.85-15.75 52.85-22.4 49.95-26.25 47.05-30.1 42.75-30.1ZM85.75 0L84.14 0 65.34-27.9 65.34-1.6Q65.34-0.9 66.05-0.9L66.05-0.9 68.39-0.9 68.39 0 60.59 0 60.59-0.9 62.95-0.9Q63.64-0.9 63.64-1.6L63.64-1.6 63.64-30Q63.64-30.6 62.95-30.6L62.95-30.6 60.59-30.6 60.59-31.5 67.94-31.5 84.05-7.7 84.05-29.9Q84.05-30.6 83.34-30.6L83.34-30.6 81-30.6 81-31.5 88.8-31.5 88.8-30.6 86.44-30.6Q85.75-30.6 85.75-30L85.75-30 85.75 0ZM116.19 0L115.24 0 115.19-0.7Q115.14-1.75 114.39-1.75L114.39-1.75Q113.99-1.75 112.94-1.2L112.94-1.2Q109.69 0.6 106.39 0.6L106.39 0.6Q100.09 0.6 96.07-3.75 92.04-8.1 92.04-15.73 92.04-23.35 96.02-27.73 99.99-32.1 106.39-32.1L106.39-32.1Q109.64-32.1 112.89-30.45L112.89-30.45Q113.94-29.9 114.39-29.9L114.39-29.9Q115.14-29.9 115.19-30.95L115.19-30.95 115.24-31.8 116.19-31.8 116.19-23.15 115.29-23.15Q114.84-27 112.42-28.83 109.99-30.65 106.39-30.65L106.39-30.65Q101.84-30.65 99.07-26.65 96.29-22.65 96.29-15.7 96.29-8.75 99.09-4.8 101.89-0.85 106.39-0.85L106.39-0.85Q109.99-0.85 112.42-2.68 114.84-4.5 115.29-8.35L115.29-8.35 116.19-8.35 116.19 0ZM132.54-10.55L119.94-10.55 119.94-12.55 132.54-12.55 132.54-10.55ZM134.29-30.6L134.29-31.5 143.79-31.5 143.79-30.6 141.29-30.6 149.44-6.2 157.79-30.6 155.29-30.6 155.29-31.5 162.09-31.5 162.09-30.6 160.24-30.6Q159.54-30.6 159.29-29.9L159.29-29.9 149.04 0 147.34 0 137.09-29.9Q136.84-30.6 136.14-30.6L136.14-30.6 134.29-30.6ZM183.99-31.5L191.79-31.5 191.79-30.6 189.44-30.6Q188.74-30.6 188.74-30L188.74-30 188.74-9.75Q188.74-4.55 185.74-1.98 182.74 0.6 177.69 0.6 172.64 0.6 169.64-1.98 166.64-4.55 166.64-9.75L166.64-9.75 166.64-30Q166.64-30.6 165.94-30.6L165.94-30.6 163.59-30.6 163.59-31.5 173.79-31.5 173.79-30.6 171.44-30.6Q170.74-30.6 170.74-30L170.74-30 170.74-9.4Q170.74-5.2 172.81-3.18 174.89-1.15 178.46-1.15 182.04-1.15 184.54-3.18 187.04-5.2 187.04-9.75L187.04-9.75 187.04-30Q187.04-30.6 186.34-30.6L186.34-30.6 183.99-30.6 183.99-31.5ZM210.83 0L194.28 0 194.28-0.9 196.63-0.9Q197.33-0.9 197.33-1.6L197.33-1.6 197.33-30Q197.33-30.6 196.63-30.6L196.63-30.6 194.28-30.6 194.28-31.5 210.13-31.5Q214.08-31.5 215.68-31.95L215.68-31.95Q215.23-29.9 215.23-26.25L215.23-26.25 215.23-23.9 214.08-23.9 213.33-29Q213.23-30.1 211.93-30.1L211.93-30.1 201.43-30.1 201.43-16.45 211.48-16.45Q212.08-16.45 212.18-17.15L212.18-17.15 212.43-20.25 213.33-20.25 213.33-11.25 212.43-11.25 212.18-14.35Q212.08-15.05 211.48-15.05L211.48-15.05 201.43-15.05 201.43-1.4 212.63-1.4Q213.93-1.4 214.03-2.5L214.03-2.5 214.78-8.35 215.93-8.35 215.93-6Q215.93-1.6 216.38 0.45L216.38 0.45Q214.78 0 210.83 0L210.83 0Z" opacity="1" transform="matrix(1,0,0,1,0,0)" fill="#ffffff" class="undefined-text-0" data-fill-palette-color="primary" id="text-0"></path></svg></g></svg></g><g transform="matrix(1,0,0,1,0,58.964661651651454)"><svg viewBox="0 0 316.416 15.73356287512809" height="15.73356287512809" width="316.416"><g transform="matrix(1,0,0,1,0,0)"><svg width="316.416" viewBox="3.85 -38.05 1024.65 50.949999999999996" height="15.73356287512809" data-palette-color="#ffffff"><path d="M34.35-34.6L39.2-34.6 39.2 0 34.65 0 34.65-25.8 23.15 0 19.95 0 8.4-25.85 8.4 0 3.85 0 3.85-34.6 8.75-34.6 21.55-6 34.35-34.6ZM49.25-31.85Q47.95-31.85 47.05-32.75 46.15-33.65 46.15-34.95L46.15-34.95Q46.15-36.25 47.05-37.15 47.95-38.05 49.25-38.05L49.25-38.05Q50.5-38.05 51.38-37.15 52.25-36.25 52.25-34.95L52.25-34.95Q52.25-33.65 51.38-32.75 50.5-31.85 49.25-31.85L49.25-31.85ZM46.9-27.4L51.45-27.4 51.45 0 46.9 0 46.9-27.4ZM57.5-13.75Q57.5-18 59.2-21.18 60.9-24.35 63.93-26.1 66.95-27.85 70.85-27.85L70.85-27.85Q75.9-27.85 79.18-25.4 82.45-22.95 83.5-18.6L83.5-18.6 78.6-18.6Q77.9-21.1 75.88-22.55 73.85-24 70.85-24L70.85-24Q66.95-24 64.55-21.33 62.15-18.65 62.15-13.75L62.15-13.75Q62.15-8.8 64.55-6.1 66.95-3.4 70.85-3.4L70.85-3.4Q73.85-3.4 75.85-4.8 77.85-6.2 78.6-8.8L78.6-8.8 83.5-8.8Q82.4-4.6 79.1-2.08 75.8 0.45 70.85 0.45L70.85 0.45Q66.95 0.45 63.93-1.3 60.9-3.05 59.2-6.25 57.5-9.45 57.5-13.75L57.5-13.75ZM94.1-22.95Q95.3-25.3 97.53-26.6 99.75-27.9 102.95-27.9L102.95-27.9 102.95-23.2 101.75-23.2Q94.1-23.2 94.1-14.9L94.1-14.9 94.1 0 89.55 0 89.55-27.4 94.1-27.4 94.1-22.95ZM120.15 0.45Q116.3 0.45 113.18-1.3 110.05-3.05 108.28-6.28 106.5-9.5 106.5-13.75L106.5-13.75Q106.5-17.95 108.33-21.18 110.15-24.4 113.3-26.13 116.45-27.85 120.35-27.85L120.35-27.85Q124.25-27.85 127.4-26.13 130.55-24.4 132.38-21.2 134.2-18 134.2-13.75L134.2-13.75Q134.2-9.5 132.33-6.28 130.45-3.05 127.25-1.3 124.05 0.45 120.15 0.45L120.15 0.45ZM120.15-3.55Q122.6-3.55 124.75-4.7 126.9-5.85 128.23-8.15 129.55-10.45 129.55-13.75L129.55-13.75Q129.55-17.05 128.25-19.35 126.95-21.65 124.85-22.78 122.75-23.9 120.3-23.9L120.3-23.9Q117.8-23.9 115.73-22.78 113.65-21.65 112.4-19.35 111.15-17.05 111.15-13.75L111.15-13.75Q111.15-10.4 112.38-8.1 113.6-5.8 115.65-4.67 117.7-3.55 120.15-3.55L120.15-3.55ZM149.9 0.45Q146.75 0.45 144.25-0.63 141.75-1.7 140.3-3.63 138.85-5.55 138.7-8.05L138.7-8.05 143.4-8.05Q143.6-6 145.33-4.7 147.05-3.4 149.85-3.4L149.85-3.4Q152.45-3.4 153.95-4.55 155.45-5.7 155.45-7.45L155.45-7.45Q155.45-9.25 153.85-10.13 152.25-11 148.9-11.85L148.9-11.85Q145.85-12.65 143.93-13.48 142-14.3 140.63-15.93 139.25-17.55 139.25-20.2L139.25-20.2Q139.25-22.3 140.5-24.05 141.75-25.8 144.05-26.83 146.35-27.85 149.3-27.85L149.3-27.85Q153.85-27.85 156.65-25.55 159.45-23.25 159.65-19.25L159.65-19.25 155.1-19.25Q154.95-21.4 153.38-22.7 151.8-24 149.15-24L149.15-24Q146.7-24 145.25-22.95 143.8-21.9 143.8-20.2L143.8-20.2Q143.8-18.85 144.68-17.98 145.55-17.1 146.88-16.57 148.2-16.05 150.55-15.4L150.55-15.4Q153.5-14.6 155.35-13.83 157.2-13.05 158.53-11.5 159.85-9.95 159.9-7.45L159.9-7.45Q159.9-5.2 158.65-3.4 157.4-1.6 155.13-0.58 152.85 0.45 149.9 0.45L149.9 0.45ZM191.3-14.75Q191.3-13.45 191.15-12L191.15-12 169.25-12Q169.5-7.95 172.03-5.68 174.55-3.4 178.15-3.4L178.15-3.4Q181.1-3.4 183.08-4.78 185.05-6.15 185.85-8.45L185.85-8.45 190.75-8.45Q189.65-4.5 186.35-2.02 183.05 0.45 178.15 0.45L178.15 0.45Q174.25 0.45 171.18-1.3 168.1-3.05 166.35-6.28 164.6-9.5 164.6-13.75L164.6-13.75Q164.6-18 166.3-21.2 168-24.4 171.08-26.13 174.15-27.85 178.15-27.85L178.15-27.85Q182.05-27.85 185.05-26.15 188.05-24.45 189.68-21.48 191.3-18.5 191.3-14.75L191.3-14.75ZM186.6-15.7Q186.6-18.3 185.45-20.18 184.3-22.05 182.33-23.03 180.35-24 177.95-24L177.95-24Q174.5-24 172.08-21.8 169.65-19.6 169.3-15.7L169.3-15.7 186.6-15.7ZM201.85-22.95Q203.05-25.3 205.28-26.6 207.5-27.9 210.7-27.9L210.7-27.9 210.7-23.2 209.5-23.2Q201.85-23.2 201.85-14.9L201.85-14.9 201.85 0 197.3 0 197.3-27.4 201.85-27.4 201.85-22.95ZM217.6-27.4L226.15-4.2 234.65-27.4 239.5-27.4 228.75 0 223.45 0 212.7-27.4 217.6-27.4ZM246.35-31.85Q245.05-31.85 244.15-32.75 243.25-33.65 243.25-34.95L243.25-34.95Q243.25-36.25 244.15-37.15 245.05-38.05 246.35-38.05L246.35-38.05Q247.6-38.05 248.48-37.15 249.35-36.25 249.35-34.95L249.35-34.95Q249.35-33.65 248.48-32.75 247.6-31.85 246.35-31.85L246.35-31.85ZM244-27.4L248.55-27.4 248.55 0 244 0 244-27.4ZM254.6-13.75Q254.6-18 256.3-21.18 258-24.35 261.03-26.1 264.05-27.85 267.95-27.85L267.95-27.85Q273-27.85 276.28-25.4 279.55-22.95 280.6-18.6L280.6-18.6 275.7-18.6Q275-21.1 272.98-22.55 270.95-24 267.95-24L267.95-24Q264.05-24 261.65-21.33 259.25-18.65 259.25-13.75L259.25-13.75Q259.25-8.8 261.65-6.1 264.05-3.4 267.95-3.4L267.95-3.4Q270.95-3.4 272.95-4.8 274.95-6.2 275.7-8.8L275.7-8.8 280.6-8.8Q279.5-4.6 276.2-2.08 272.9 0.45 267.95 0.45L267.95 0.45Q264.05 0.45 261.03-1.3 258-3.05 256.3-6.25 254.6-9.45 254.6-13.75L254.6-13.75ZM311.65-14.75Q311.65-13.45 311.5-12L311.5-12 289.6-12Q289.85-7.95 292.38-5.68 294.9-3.4 298.5-3.4L298.5-3.4Q301.45-3.4 303.43-4.78 305.4-6.15 306.2-8.45L306.2-8.45 311.1-8.45Q310-4.5 306.7-2.02 303.4 0.45 298.5 0.45L298.5 0.45Q294.6 0.45 291.53-1.3 288.45-3.05 286.7-6.28 284.95-9.5 284.95-13.75L284.95-13.75Q284.95-18 286.65-21.2 288.35-24.4 291.43-26.13 294.5-27.85 298.5-27.85L298.5-27.85Q302.4-27.85 305.4-26.15 308.4-24.45 310.03-21.48 311.65-18.5 311.65-14.75L311.65-14.75ZM306.95-15.7Q306.95-18.3 305.8-20.18 304.65-22.05 302.68-23.03 300.7-24 298.3-24L298.3-24Q294.85-24 292.43-21.8 290-19.6 289.65-15.7L289.65-15.7 306.95-15.7ZM329.3-13.8Q329.3-18 331-21.18 332.7-24.35 335.68-26.1 338.65-27.85 342.3-27.85L342.3-27.85Q345.9-27.85 348.55-26.3 351.2-24.75 352.5-22.4L352.5-22.4 352.5-27.4 357.1-27.4 357.1 0 352.5 0 352.5-5.1Q351.15-2.7 348.48-1.13 345.8 0.45 342.25 0.45L342.25 0.45Q338.6 0.45 335.65-1.35 332.7-3.15 331-6.4 329.3-9.65 329.3-13.8L329.3-13.8ZM352.5-13.75Q352.5-16.85 351.25-19.15 350-21.45 347.88-22.68 345.75-23.9 343.2-23.9L343.2-23.9Q340.65-23.9 338.55-22.7 336.45-21.5 335.2-19.2 333.95-16.9 333.95-13.8L333.95-13.8Q333.95-10.65 335.2-8.33 336.45-6 338.55-4.78 340.65-3.55 343.2-3.55L343.2-3.55Q345.75-3.55 347.88-4.78 350-6 351.25-8.33 352.5-10.65 352.5-13.75L352.5-13.75ZM369.35-22.95Q370.55-25.3 372.78-26.6 375-27.9 378.2-27.9L378.2-27.9 378.2-23.2 377-23.2Q369.35-23.2 369.35-14.9L369.35-14.9 369.35 0 364.8 0 364.8-27.4 369.35-27.4 369.35-22.95ZM381.75-13.75Q381.75-18 383.45-21.18 385.15-24.35 388.18-26.1 391.2-27.85 395.1-27.85L395.1-27.85Q400.15-27.85 403.43-25.4 406.7-22.95 407.75-18.6L407.75-18.6 402.85-18.6Q402.15-21.1 400.13-22.55 398.1-24 395.1-24L395.1-24Q391.2-24 388.8-21.33 386.4-18.65 386.4-13.75L386.4-13.75Q386.4-8.8 388.8-6.1 391.2-3.4 395.1-3.4L395.1-3.4Q398.1-3.4 400.1-4.8 402.1-6.2 402.85-8.8L402.85-8.8 407.75-8.8Q406.65-4.6 403.35-2.08 400.05 0.45 395.1 0.45L395.1 0.45Q391.2 0.45 388.18-1.3 385.15-3.05 383.45-6.25 381.75-9.45 381.75-13.75L381.75-13.75ZM427.4-27.9Q430.5-27.9 433-26.58 435.5-25.25 436.93-22.6 438.35-19.95 438.35-16.15L438.35-16.15 438.35 0 433.85 0 433.85-15.5Q433.85-19.6 431.8-21.78 429.75-23.95 426.2-23.95L426.2-23.95Q422.6-23.95 420.48-21.7 418.35-19.45 418.35-15.15L418.35-15.15 418.35 0 413.8 0 413.8-37 418.35-37 418.35-23.5Q419.7-25.6 422.08-26.75 424.45-27.9 427.4-27.9L427.4-27.9ZM448.15-31.85Q446.85-31.85 445.95-32.75 445.05-33.65 445.05-34.95L445.05-34.95Q445.05-36.25 445.95-37.15 446.85-38.05 448.15-38.05L448.15-38.05Q449.4-38.05 450.28-37.15 451.15-36.25 451.15-34.95L451.15-34.95Q451.15-33.65 450.28-32.75 449.4-31.85 448.15-31.85L448.15-31.85ZM445.8-27.4L450.35-27.4 450.35 0 445.8 0 445.8-27.4ZM470.8-23.65L463.65-23.65 463.65-7.5Q463.65-5.5 464.5-4.67 465.35-3.85 467.45-3.85L467.45-3.85 470.8-3.85 470.8 0 466.7 0Q462.9 0 461-1.75 459.1-3.5 459.1-7.5L459.1-7.5 459.1-23.65 455.55-23.65 455.55-27.4 459.1-27.4 459.1-34.3 463.65-34.3 463.65-27.4 470.8-27.4 470.8-23.65ZM501.3-14.75Q501.3-13.45 501.15-12L501.15-12 479.25-12Q479.5-7.95 482.03-5.68 484.55-3.4 488.15-3.4L488.15-3.4Q491.1-3.4 493.08-4.78 495.05-6.15 495.85-8.45L495.85-8.45 500.75-8.45Q499.65-4.5 496.35-2.02 493.05 0.45 488.15 0.45L488.15 0.45Q484.25 0.45 481.18-1.3 478.1-3.05 476.35-6.28 474.6-9.5 474.6-13.75L474.6-13.75Q474.6-18 476.3-21.2 478-24.4 481.08-26.13 484.15-27.85 488.15-27.85L488.15-27.85Q492.05-27.85 495.05-26.15 498.05-24.45 499.68-21.48 501.3-18.5 501.3-14.75L501.3-14.75ZM496.6-15.7Q496.6-18.3 495.45-20.18 494.3-22.05 492.33-23.03 490.35-24 487.95-24L487.95-24Q484.5-24 482.08-21.8 479.65-19.6 479.3-15.7L479.3-15.7 496.6-15.7ZM505.6-13.75Q505.6-18 507.3-21.18 509-24.35 512.03-26.1 515.05-27.85 518.95-27.85L518.95-27.85Q524-27.85 527.28-25.4 530.55-22.95 531.6-18.6L531.6-18.6 526.7-18.6Q526-21.1 523.98-22.55 521.95-24 518.95-24L518.95-24Q515.05-24 512.65-21.33 510.25-18.65 510.25-13.75L510.25-13.75Q510.25-8.8 512.65-6.1 515.05-3.4 518.95-3.4L518.95-3.4Q521.95-3.4 523.95-4.8 525.95-6.2 526.7-8.8L526.7-8.8 531.6-8.8Q530.5-4.6 527.2-2.08 523.9 0.45 518.95 0.45L518.95 0.45Q515.05 0.45 512.03-1.3 509-3.05 507.3-6.25 505.6-9.45 505.6-13.75L505.6-13.75ZM550.35-23.65L543.2-23.65 543.2-7.5Q543.2-5.5 544.05-4.67 544.9-3.85 547-3.85L547-3.85 550.35-3.85 550.35 0 546.25 0Q542.45 0 540.55-1.75 538.65-3.5 538.65-7.5L538.65-7.5 538.65-23.65 535.1-23.65 535.1-27.4 538.65-27.4 538.65-34.3 543.2-34.3 543.2-27.4 550.35-27.4 550.35-23.65ZM575.6-27.4L580.15-27.4 580.15 0 575.6 0 575.6-4.05Q574.3-1.95 571.98-0.78 569.65 0.4 566.85 0.4L566.85 0.4Q563.65 0.4 561.1-0.93 558.55-2.25 557.08-4.9 555.6-7.55 555.6-11.35L555.6-11.35 555.6-27.4 560.1-27.4 560.1-11.95Q560.1-7.9 562.15-5.73 564.2-3.55 567.75-3.55L567.75-3.55Q571.4-3.55 573.5-5.8 575.6-8.05 575.6-12.35L575.6-12.35 575.6-27.4ZM592.4-22.95Q593.6-25.3 595.83-26.6 598.05-27.9 601.25-27.9L601.25-27.9 601.25-23.2 600.05-23.2Q592.4-23.2 592.4-14.9L592.4-14.9 592.4 0 587.85 0 587.85-27.4 592.4-27.4 592.4-22.95ZM631.5-14.75Q631.5-13.45 631.35-12L631.35-12 609.45-12Q609.7-7.95 612.23-5.68 614.75-3.4 618.35-3.4L618.35-3.4Q621.3-3.4 623.28-4.78 625.25-6.15 626.05-8.45L626.05-8.45 630.95-8.45Q629.85-4.5 626.55-2.02 623.25 0.45 618.35 0.45L618.35 0.45Q614.45 0.45 611.38-1.3 608.3-3.05 606.55-6.28 604.8-9.5 604.8-13.75L604.8-13.75Q604.8-18 606.5-21.2 608.2-24.4 611.28-26.13 614.35-27.85 618.35-27.85L618.35-27.85Q622.25-27.85 625.25-26.15 628.25-24.45 629.88-21.48 631.5-18.5 631.5-14.75L631.5-14.75ZM626.8-15.7Q626.8-18.3 625.65-20.18 624.5-22.05 622.53-23.03 620.55-24 618.15-24L618.15-24Q614.7-24 612.28-21.8 609.85-19.6 609.5-15.7L609.5-15.7 626.8-15.7ZM649.15-13.75Q649.15-18 650.85-21.18 652.55-24.35 655.58-26.1 658.6-27.85 662.5-27.85L662.5-27.85Q667.55-27.85 670.83-25.4 674.1-22.95 675.15-18.6L675.15-18.6 670.25-18.6Q669.55-21.1 667.53-22.55 665.5-24 662.5-24L662.5-24Q658.6-24 656.2-21.33 653.8-18.65 653.8-13.75L653.8-13.75Q653.8-8.8 656.2-6.1 658.6-3.4 662.5-3.4L662.5-3.4Q665.5-3.4 667.5-4.8 669.5-6.2 670.25-8.8L670.25-8.8 675.15-8.8Q674.05-4.6 670.75-2.08 667.45 0.45 662.5 0.45L662.5 0.45Q658.6 0.45 655.58-1.3 652.55-3.05 650.85-6.25 649.15-9.45 649.15-13.75L649.15-13.75ZM693.15 0.45Q689.3 0.45 686.18-1.3 683.05-3.05 681.28-6.28 679.5-9.5 679.5-13.75L679.5-13.75Q679.5-17.95 681.33-21.18 683.15-24.4 686.3-26.13 689.45-27.85 693.35-27.85L693.35-27.85Q697.25-27.85 700.4-26.13 703.55-24.4 705.38-21.2 707.2-18 707.2-13.75L707.2-13.75Q707.2-9.5 705.33-6.28 703.45-3.05 700.25-1.3 697.05 0.45 693.15 0.45L693.15 0.45ZM693.15-3.55Q695.6-3.55 697.75-4.7 699.9-5.85 701.23-8.15 702.55-10.45 702.55-13.75L702.55-13.75Q702.55-17.05 701.25-19.35 699.95-21.65 697.85-22.78 695.75-23.9 693.3-23.9L693.3-23.9Q690.8-23.9 688.73-22.78 686.65-21.65 685.4-19.35 684.15-17.05 684.15-13.75L684.15-13.75Q684.15-10.4 685.38-8.1 686.6-5.8 688.65-4.67 690.7-3.55 693.15-3.55L693.15-3.55ZM726.55-27.9Q731.55-27.9 734.65-24.88 737.75-21.85 737.75-16.15L737.75-16.15 737.75 0 733.25 0 733.25-15.5Q733.25-19.6 731.2-21.78 729.15-23.95 725.6-23.95L725.6-23.95Q722-23.95 719.88-21.7 717.75-19.45 717.75-15.15L717.75-15.15 717.75 0 713.2 0 713.2-27.4 717.75-27.4 717.75-23.5Q719.1-25.6 721.43-26.75 723.75-27.9 726.55-27.9L726.55-27.9ZM758.55-27.9Q763.55-27.9 766.65-24.88 769.75-21.85 769.75-16.15L769.75-16.15 769.75 0 765.25 0 765.25-15.5Q765.25-19.6 763.2-21.78 761.15-23.95 757.6-23.95L757.6-23.95Q754-23.95 751.88-21.7 749.75-19.45 749.75-15.15L749.75-15.15 749.75 0 745.2 0 745.2-27.4 749.75-27.4 749.75-23.5Q751.1-25.6 753.43-26.75 755.75-27.9 758.55-27.9L758.55-27.9ZM802.2-14.75Q802.2-13.45 802.05-12L802.05-12 780.15-12Q780.4-7.95 782.93-5.68 785.45-3.4 789.05-3.4L789.05-3.4Q792-3.4 793.98-4.78 795.95-6.15 796.75-8.45L796.75-8.45 801.65-8.45Q800.55-4.5 797.25-2.02 793.95 0.45 789.05 0.45L789.05 0.45Q785.15 0.45 782.08-1.3 779-3.05 777.25-6.28 775.5-9.5 775.5-13.75L775.5-13.75Q775.5-18 777.2-21.2 778.9-24.4 781.98-26.13 785.05-27.85 789.05-27.85L789.05-27.85Q792.95-27.85 795.95-26.15 798.95-24.45 800.58-21.48 802.2-18.5 802.2-14.75L802.2-14.75ZM797.5-15.7Q797.5-18.3 796.35-20.18 795.2-22.05 793.23-23.03 791.25-24 788.85-24L788.85-24Q785.4-24 782.98-21.8 780.55-19.6 780.2-15.7L780.2-15.7 797.5-15.7ZM806.5-13.75Q806.5-18 808.2-21.18 809.9-24.35 812.93-26.1 815.95-27.85 819.85-27.85L819.85-27.85Q824.9-27.85 828.18-25.4 831.45-22.95 832.5-18.6L832.5-18.6 827.6-18.6Q826.9-21.1 824.88-22.55 822.85-24 819.85-24L819.85-24Q815.95-24 813.55-21.33 811.15-18.65 811.15-13.75L811.15-13.75Q811.15-8.8 813.55-6.1 815.95-3.4 819.85-3.4L819.85-3.4Q822.85-3.4 824.85-4.8 826.85-6.2 827.6-8.8L827.6-8.8 832.5-8.8Q831.4-4.6 828.1-2.08 824.8 0.45 819.85 0.45L819.85 0.45Q815.95 0.45 812.93-1.3 809.9-3.05 808.2-6.25 806.5-9.45 806.5-13.75L806.5-13.75ZM851.25-23.65L844.1-23.65 844.1-7.5Q844.1-5.5 844.95-4.67 845.8-3.85 847.9-3.85L847.9-3.85 851.25-3.85 851.25 0 847.15 0Q843.35 0 841.45-1.75 839.55-3.5 839.55-7.5L839.55-7.5 839.55-23.65 836-23.65 836-27.4 839.55-27.4 839.55-34.3 844.1-34.3 844.1-27.4 851.25-27.4 851.25-23.65ZM866.45 0.45Q863.3 0.45 860.8-0.63 858.3-1.7 856.85-3.63 855.4-5.55 855.25-8.05L855.25-8.05 859.95-8.05Q860.15-6 861.88-4.7 863.6-3.4 866.4-3.4L866.4-3.4Q869-3.4 870.5-4.55 872-5.7 872-7.45L872-7.45Q872-9.25 870.4-10.13 868.8-11 865.45-11.85L865.45-11.85Q862.4-12.65 860.48-13.48 858.55-14.3 857.18-15.93 855.8-17.55 855.8-20.2L855.8-20.2Q855.8-22.3 857.05-24.05 858.3-25.8 860.6-26.83 862.9-27.85 865.85-27.85L865.85-27.85Q870.4-27.85 873.2-25.55 876-23.25 876.2-19.25L876.2-19.25 871.65-19.25Q871.5-21.4 869.93-22.7 868.35-24 865.7-24L865.7-24Q863.25-24 861.8-22.95 860.35-21.9 860.35-20.2L860.35-20.2Q860.35-18.85 861.23-17.98 862.1-17.1 863.43-16.57 864.75-16.05 867.1-15.4L867.1-15.4Q870.05-14.6 871.9-13.83 873.75-13.05 875.08-11.5 876.4-9.95 876.45-7.45L876.45-7.45Q876.45-5.2 875.2-3.4 873.95-1.6 871.68-0.58 869.4 0.45 866.45 0.45L866.45 0.45ZM921.2-14.75Q921.2-13.45 921.05-12L921.05-12 899.15-12Q899.4-7.95 901.93-5.68 904.45-3.4 908.05-3.4L908.05-3.4Q911-3.4 912.98-4.78 914.95-6.15 915.75-8.45L915.75-8.45 920.65-8.45Q919.55-4.5 916.25-2.02 912.95 0.45 908.05 0.45L908.05 0.45Q904.15 0.45 901.08-1.3 898-3.05 896.25-6.28 894.5-9.5 894.5-13.75L894.5-13.75Q894.5-18 896.2-21.2 897.9-24.4 900.98-26.13 904.05-27.85 908.05-27.85L908.05-27.85Q911.95-27.85 914.95-26.15 917.95-24.45 919.58-21.48 921.2-18.5 921.2-14.75L921.2-14.75ZM916.5-15.7Q916.5-18.3 915.35-20.18 914.2-22.05 912.23-23.03 910.25-24 907.85-24L907.85-24Q904.4-24 901.98-21.8 899.55-19.6 899.2-15.7L899.2-15.7 916.5-15.7ZM928.85-27.4L937.4-4.2 945.9-27.4 950.75-27.4 940 0 934.7 0 923.95-27.4 928.85-27.4ZM980.25-14.75Q980.25-13.45 980.1-12L980.1-12 958.2-12Q958.45-7.95 960.98-5.68 963.5-3.4 967.1-3.4L967.1-3.4Q970.05-3.4 972.03-4.78 974-6.15 974.8-8.45L974.8-8.45 979.7-8.45Q978.6-4.5 975.3-2.02 972 0.45 967.1 0.45L967.1 0.45Q963.2 0.45 960.13-1.3 957.05-3.05 955.3-6.28 953.55-9.5 953.55-13.75L953.55-13.75Q953.55-18 955.25-21.2 956.95-24.4 960.03-26.13 963.1-27.85 967.1-27.85L967.1-27.85Q971-27.85 974-26.15 977-24.45 978.63-21.48 980.25-18.5 980.25-14.75L980.25-14.75ZM975.55-15.7Q975.55-18.3 974.4-20.18 973.25-22.05 971.28-23.03 969.3-24 966.9-24L966.9-24Q963.45-24 961.03-21.8 958.6-19.6 958.25-15.7L958.25-15.7 975.55-15.7ZM990.8-22.95Q992-25.3 994.23-26.6 996.45-27.9 999.65-27.9L999.65-27.9 999.65-23.2 998.45-23.2Q990.8-23.2 990.8-14.9L990.8-14.9 990.8 0 986.25 0 986.25-27.4 990.8-27.4 990.8-22.95ZM1023.8-27.4L1028.5-27.4 1012 12.9 1007.3 12.9 1012.7-0.3 1001.65-27.4 1006.7-27.4 1015.3-5.2 1023.8-27.4Z" opacity="1" transform="matrix(1,0,0,1,0,0)" fill="#ffffff" class="undefined-text-1" data-fill-palette-color="secondary" id="text-1"></path></svg></g></svg></g></svg></g></svg></g></svg></g></svg></g></svg></g><g mask="url(#d76ee786-c503-484e-86de-9240db34362f)"><g transform="matrix(2.8277199668278326, 0, 0, 2.8277199668278326, 74.81565125322018, 1)"><svg xmlns="http://www.w3.org/2000/svg" xmlns:xlink="http://www.w3.org/1999/xlink" version="1.1" x="0" y="0" viewBox="6.116920358411305 6.387028815987004 86.95652341041404 86.71297118401299" style="enable-background:new 0 0 100 100;" xml:space="preserve" height="86.71297118401299" width="86.95652341041404" class="icon-none" data-fill-palette-color="accent" id="none"><path d="M28.9 93.1c-2.5 0-5-0.7-7.3-2.1-3.2-2-5.3-5.1-6.1-8.8L6.4 36.6c-1-4.7 0.7-9.7 4.3-12.9L26 9.9c5.6-5 13.9-4.6 19.1 0.8l44.2 46.8c3.4 3.6 4.6 8.5 3.2 13.2-1.4 4.7-5 8.2-9.8 9.4L32.3 92.7C31.2 93 30.1 93.1 28.9 93.1zM30.7 15.1L15.3 29c-1.7 1.6-2.5 4-2.1 6.3l9.2 45.5c0.4 1.8 1.4 3.3 3 4.3 1.5 1 3.4 1.3 5.2 0.8L81 73.4c2.3-0.6 4.1-2.3 4.8-4.6 0.7-2.3 0.1-4.7-1.5-6.4L40 15.5C37.5 12.9 33.4 12.7 30.7 15.1L30.7 15.1z" fill="#fdc500" data-fill-palette-color="accent"></path></svg></g></g></svg></g><defs><mask id="d76ee786-c503-484e-86de-9240db34362f"><rect width="640" height="400" fill="white"></rect><rect width="348.05760000000004" height="97.22134036120278" fill="black" x="145.97119999999998" y="151.3893298193986" id="transform-me" transform="matrix(1,0,0,1,-122.24000000000001,-76.4)"></rect></mask></defs></svg><rect width="395.52" height="247.2" fill="none" stroke="none" visibility="hidden"></rect></g></svg></g></svg>